<svg width="270" height="377" viewBox="0 0 270 377" fill="none" xmlns="http://www.w3.org/2000/svg">
<path fill-rule="evenodd" clip-rule="evenodd" d="M52 44H16C8.26801 44 2 50.268 2 58V361C2 368.732 8.26801 375 16 375H254C261.732 375 268 368.732 268 361V58C268 50.268 261.732 44 254 44H217V66H242C244.209 66 246 67.7909 246 70V349C246 351.209 244.209 353 242 353H29C26.7909 353 25 351.209 25 349V70C25 67.7909 26.7909 66 29 66H52V44Z" fill="#734113"/>
<path fill-rule="evenodd" clip-rule="evenodd" d="M52 116C45.3726 116 40 121.373 40 128V152C40 158.627 45.3726 164 52 164H76C82.6274 164 88 158.627 88 152V128C88 121.373 82.6274 116 76 116H52ZM52 125C50.3431 125 49 126.343 49 128V152C49 153.657 50.3431 155 52 155H76C77.6569 155 79 153.657 79 152V128C79 126.343 77.6569 125 76 125H52Z" fill="#6C7D97"/>
<rect x="99" y="131" width="130" height="13" rx="6" fill="#6C7D97"/>
<path fill-rule="evenodd" clip-rule="evenodd" d="M52 191C45.3726 191 40 196.373 40 203V227C40 233.627 45.3726 239 52 239H76C82.6274 239 88 233.627 88 227V203C88 196.373 82.6274 191 76 191H52ZM52 200C50.3431 200 49 201.343 49 203V227C49 228.657 50.3431 230 52 230H76C77.6569 230 79 228.657 79 227V203C79 201.343 77.6569 200 76 200H52Z" fill="#6C7D97"/>
<rect x="99" y="206" width="130" height="13" rx="6" fill="#6C7D97"/>
<path fill-rule="evenodd" clip-rule="evenodd" d="M52 266C45.3726 266 40 271.373 40 278V302C40 308.627 45.3726 314 52 314H76C82.6274 314 88 308.627 88 302V278C88 271.373 82.6274 266 76 266H52ZM52 275C50.3431 275 49 276.343 49 278V302C49 303.657 50.3431 305 52 305H76C77.6569 305 79 303.657 79 302V278C79 276.343 77.6569 275 76 275H52Z" fill="#6C7D97"/>
<rect x="99" y="281" width="130" height="13" rx="6" fill="#6C7D97"/>
<path fill-rule="evenodd" clip-rule="evenodd" d="M100.032 34C100.817 15.6421 115.949 1 134.5 1C153.051 1 168.183 15.6421 168.968 34H201C206.523 34 211 38.4772 211 44V74C211 79.5229 206.523 84 201 84H71C65.4772 84 61 79.5229 61 74V44C61 38.4772 65.4772 34 71 34H100.032ZM155.948 34H113.052C113.822 22.8257 123.13 14 134.5 14C145.87 14 155.178 22.8257 155.948 34Z" fill="#6C7D97"/>
<path fill-rule="evenodd" clip-rule="evenodd" d="M57.265 323.817C55.7664 323.5 54.3482 322.731 53.2307 321.519L35.1875 301.953C32.3225 298.846 32.5185 294.005 35.6252 291.14C38.7319 288.275 43.5729 288.471 46.4379 291.578L58.4769 304.633L91.2666 251.511C93.4863 247.915 98.2011 246.799 101.797 249.019C105.393 251.239 106.509 255.954 104.289 259.55L66.5437 320.7C64.5738 323.892 60.6391 325.13 57.265 323.817Z" fill="#3FB02C"/>
</svg>
